<svg width="142" height="51" viewBox="0 0 142 51" fill="none" xmlns="http://www.w3.org/2000/svg">
<path d="M53.342 46.074C53.418 46.074 53.484 46.104 53.54 46.164L54.098 46.77C53.746 47.194 53.314 47.522 52.802 47.754C52.29 47.982 51.678 48.096 50.966 48.096C50.334 48.096 49.762 47.988 49.25 47.772C48.742 47.552 48.308 47.248 47.948 46.86C47.588 46.468 47.31 46.002 47.114 45.462C46.922 44.922 46.826 44.328 46.826 43.68C46.826 43.032 46.928 42.438 47.132 41.898C47.34 41.354 47.63 40.888 48.002 40.5C48.378 40.108 48.826 39.804 49.346 39.588C49.87 39.372 50.446 39.264 51.074 39.264C51.698 39.264 52.248 39.366 52.724 39.57C53.204 39.77 53.62 40.038 53.972 40.374L53.51 41.028C53.478 41.072 53.44 41.11 53.396 41.142C53.352 41.174 53.292 41.19 53.216 41.19C53.136 41.19 53.044 41.154 52.94 41.082C52.84 41.006 52.71 40.924 52.55 40.836C52.394 40.744 52.196 40.662 51.956 40.59C51.72 40.514 51.424 40.476 51.068 40.476C50.656 40.476 50.278 40.548 49.934 40.692C49.59 40.836 49.294 41.046 49.046 41.322C48.798 41.598 48.604 41.934 48.464 42.33C48.328 42.726 48.26 43.176 48.26 43.68C48.26 44.188 48.332 44.642 48.476 45.042C48.62 45.438 48.818 45.774 49.07 46.05C49.322 46.322 49.618 46.53 49.958 46.674C50.298 46.818 50.664 46.89 51.056 46.89C51.296 46.89 51.51 46.878 51.698 46.854C51.89 46.826 52.066 46.784 52.226 46.728C52.386 46.668 52.536 46.594 52.676 46.506C52.82 46.418 52.962 46.31 53.102 46.182C53.182 46.11 53.262 46.074 53.342 46.074Z" fill="#66666E"/>
<path d="M58.3407 45.324C57.8807 45.34 57.4927 45.378 57.1767 45.438C56.8607 45.494 56.6047 45.568 56.4087 45.66C56.2127 45.748 56.0707 45.854 55.9827 45.978C55.8987 46.102 55.8567 46.238 55.8567 46.386C55.8567 46.53 55.8787 46.654 55.9227 46.758C55.9707 46.858 56.0347 46.942 56.1147 47.01C56.1987 47.074 56.2947 47.122 56.4027 47.154C56.5147 47.182 56.6367 47.196 56.7687 47.196C57.1047 47.196 57.3927 47.134 57.6327 47.01C57.8767 46.882 58.1127 46.698 58.3407 46.458V45.324ZM54.9207 42.732C55.6127 42.088 56.4367 41.766 57.3927 41.766C57.7447 41.766 58.0567 41.824 58.3287 41.94C58.6047 42.052 58.8347 42.212 59.0187 42.42C59.2067 42.628 59.3487 42.876 59.4447 43.164C59.5447 43.448 59.5947 43.764 59.5947 44.112V48H59.0187C58.8947 48 58.8007 47.982 58.7367 47.946C58.6727 47.906 58.6187 47.828 58.5747 47.712L58.4487 47.214C58.2927 47.354 58.1387 47.48 57.9867 47.592C57.8347 47.7 57.6767 47.792 57.5127 47.868C57.3527 47.944 57.1787 48 56.9907 48.036C56.8067 48.076 56.6027 48.096 56.3787 48.096C56.1307 48.096 55.8987 48.062 55.6827 47.994C55.4707 47.926 55.2867 47.824 55.1307 47.688C54.9747 47.548 54.8507 47.376 54.7587 47.172C54.6707 46.968 54.6267 46.728 54.6267 46.452C54.6267 46.216 54.6887 45.986 54.8127 45.762C54.9407 45.538 55.1487 45.338 55.4367 45.162C55.7287 44.982 56.1107 44.834 56.5827 44.718C57.0587 44.602 57.6447 44.536 58.3407 44.52V44.112C58.3407 43.672 58.2467 43.344 58.0587 43.128C57.8707 42.912 57.5947 42.804 57.2307 42.804C56.9827 42.804 56.7747 42.836 56.6067 42.9C56.4387 42.96 56.2927 43.026 56.1687 43.098C56.0447 43.17 55.9347 43.238 55.8387 43.302C55.7427 43.362 55.6407 43.392 55.5327 43.392C55.4447 43.392 55.3687 43.37 55.3047 43.326C55.2447 43.278 55.1947 43.22 55.1547 43.152L54.9207 42.732Z" fill="#66666E"/>
<path d="M62.9859 48.096C62.4779 48.096 62.0859 47.954 61.8099 47.67C61.5379 47.382 61.4019 46.978 61.4019 46.458V42.894H60.7299C60.6579 42.894 60.5959 42.872 60.5439 42.828C60.4919 42.78 60.4659 42.71 60.4659 42.618V42.096L61.4559 41.952L61.7379 40.182C61.7579 40.114 61.7919 40.06 61.8399 40.02C61.8879 39.976 61.9519 39.954 62.0319 39.954H62.6919V41.964H64.3899V42.894H62.6919V46.368C62.6919 46.588 62.7459 46.756 62.8539 46.872C62.9619 46.988 63.1059 47.046 63.2859 47.046C63.3859 47.046 63.4719 47.034 63.5439 47.01C63.6159 46.982 63.6779 46.954 63.7299 46.926C63.7819 46.894 63.8259 46.866 63.8619 46.842C63.9019 46.814 63.9399 46.8 63.9759 46.8C64.0479 46.8 64.1059 46.84 64.1499 46.92L64.5339 47.55C64.3339 47.726 64.0979 47.862 63.8259 47.958C63.5539 48.05 63.2739 48.096 62.9859 48.096Z" fill="#66666E"/>
<path d="M69.3738 44.25C69.3738 44.034 69.3418 43.834 69.2778 43.65C69.2178 43.462 69.1278 43.3 69.0078 43.164C68.8878 43.024 68.7378 42.916 68.5578 42.84C68.3818 42.76 68.1778 42.72 67.9458 42.72C67.4778 42.72 67.1098 42.854 66.8418 43.122C66.5738 43.39 66.4038 43.766 66.3318 44.25H69.3738ZM66.2958 45.042C66.3118 45.39 66.3658 45.692 66.4578 45.948C66.5498 46.2 66.6718 46.41 66.8238 46.578C66.9798 46.746 67.1638 46.872 67.3758 46.956C67.5918 47.036 67.8318 47.076 68.0958 47.076C68.3478 47.076 68.5658 47.048 68.7498 46.992C68.9338 46.932 69.0938 46.868 69.2298 46.8C69.3658 46.728 69.4818 46.664 69.5778 46.608C69.6738 46.548 69.7618 46.518 69.8418 46.518C69.9458 46.518 70.0258 46.558 70.0818 46.638L70.4478 47.112C70.2958 47.292 70.1238 47.444 69.9318 47.568C69.7398 47.692 69.5358 47.794 69.3198 47.874C69.1038 47.95 68.8818 48.004 68.6538 48.036C68.4258 48.072 68.2038 48.09 67.9878 48.09C67.5638 48.09 67.1698 48.02 66.8058 47.88C66.4458 47.736 66.1318 47.526 65.8638 47.25C65.5998 46.974 65.3918 46.632 65.2398 46.224C65.0918 45.816 65.0178 45.346 65.0178 44.814C65.0178 44.39 65.0838 43.994 65.2158 43.626C65.3518 43.258 65.5438 42.938 65.7918 42.666C66.0438 42.394 66.3478 42.18 66.7038 42.024C67.0638 41.864 67.4698 41.784 67.9218 41.784C68.2978 41.784 68.6458 41.846 68.9658 41.97C69.2858 42.09 69.5618 42.268 69.7938 42.504C70.0258 42.74 70.2058 43.03 70.3338 43.374C70.4658 43.714 70.5318 44.102 70.5318 44.538C70.5318 44.738 70.5098 44.872 70.4658 44.94C70.4218 45.008 70.3418 45.042 70.2258 45.042H66.2958Z" fill="#66666E"/>
<path d="M72.9528 43.014C73.1448 42.626 73.3768 42.322 73.6488 42.102C73.9208 41.878 74.2468 41.766 74.6268 41.766C74.7588 41.766 74.8828 41.782 74.9988 41.814C75.1148 41.842 75.2188 41.886 75.3108 41.946L75.2208 42.918C75.2048 42.986 75.1788 43.034 75.1428 43.062C75.1108 43.086 75.0668 43.098 75.0108 43.098C74.9508 43.098 74.8648 43.088 74.7528 43.068C74.6408 43.044 74.5228 43.032 74.3988 43.032C74.2188 43.032 74.0588 43.058 73.9188 43.11C73.7828 43.162 73.6588 43.238 73.5468 43.338C73.4388 43.438 73.3428 43.56 73.2588 43.704C73.1748 43.848 73.0968 44.012 73.0248 44.196V48H71.7348V41.88H72.4848C72.6208 41.88 72.7148 41.906 72.7668 41.958C72.8188 42.006 72.8548 42.092 72.8748 42.216L72.9528 43.014Z" fill="#66666E"/>
<path d="M77.5085 41.88V48H76.2185V41.88H77.5085ZM77.7245 40.032C77.7245 40.148 77.7005 40.258 77.6525 40.362C77.6085 40.466 77.5465 40.558 77.4665 40.638C77.3865 40.714 77.2925 40.776 77.1845 40.824C77.0805 40.868 76.9685 40.89 76.8485 40.89C76.7325 40.89 76.6225 40.868 76.5185 40.824C76.4185 40.776 76.3305 40.714 76.2545 40.638C76.1785 40.558 76.1165 40.466 76.0685 40.362C76.0245 40.258 76.0025 40.148 76.0025 40.032C76.0025 39.912 76.0245 39.8 76.0685 39.696C76.1165 39.592 76.1785 39.502 76.2545 39.426C76.3305 39.346 76.4185 39.284 76.5185 39.24C76.6225 39.192 76.7325 39.168 76.8485 39.168C76.9685 39.168 77.0805 39.192 77.1845 39.24C77.2925 39.284 77.3865 39.346 77.4665 39.426C77.5465 39.502 77.6085 39.592 77.6525 39.696C77.7005 39.8 77.7245 39.912 77.7245 40.032Z" fill="#66666E"/>
<path d="M80.3353 42.69C80.4673 42.554 80.6033 42.432 80.7433 42.324C80.8873 42.212 81.0393 42.116 81.1993 42.036C81.3593 41.956 81.5293 41.894 81.7093 41.85C81.8893 41.806 82.0853 41.784 82.2973 41.784C82.6333 41.784 82.9273 41.84 83.1793 41.952C83.4353 42.064 83.6493 42.222 83.8213 42.426C83.9973 42.63 84.1293 42.876 84.2173 43.164C84.3053 43.448 84.3493 43.762 84.3493 44.106V48H83.0653V44.106C83.0653 43.694 82.9693 43.374 82.7773 43.146C82.5893 42.918 82.3013 42.804 81.9133 42.804C81.6253 42.804 81.3573 42.87 81.1093 43.002C80.8653 43.134 80.6353 43.314 80.4193 43.542V48H79.1293V41.88H79.9093C80.0853 41.88 80.1973 41.962 80.2453 42.126L80.3353 42.69Z" fill="#66666E"/>
<path d="M88.0399 44.886C88.4399 44.886 88.7399 44.784 88.9399 44.58C89.1399 44.376 89.2399 44.11 89.2399 43.782C89.2399 43.446 89.1399 43.18 88.9399 42.984C88.7399 42.788 88.4399 42.69 88.0399 42.69C87.6439 42.69 87.3439 42.788 87.1399 42.984C86.9399 43.18 86.8399 43.446 86.8399 43.782C86.8399 43.942 86.8659 44.09 86.9179 44.226C86.9699 44.362 87.0459 44.48 87.1459 44.58C87.2459 44.676 87.3699 44.752 87.5179 44.808C87.6699 44.86 87.8439 44.886 88.0399 44.886ZM89.8339 48.3C89.8339 48.164 89.7939 48.056 89.7139 47.976C89.6379 47.892 89.5339 47.828 89.4019 47.784C89.2699 47.736 89.1159 47.702 88.9399 47.682C88.7639 47.658 88.5759 47.642 88.3759 47.634C88.1799 47.622 87.9779 47.612 87.7699 47.604C87.5659 47.592 87.3679 47.572 87.1759 47.544C86.9839 47.644 86.8259 47.764 86.7019 47.904C86.5819 48.044 86.5219 48.206 86.5219 48.39C86.5219 48.51 86.5519 48.622 86.6119 48.726C86.6759 48.83 86.7719 48.92 86.8999 48.996C87.0319 49.072 87.1979 49.132 87.3979 49.176C87.6019 49.22 87.8459 49.242 88.1299 49.242C88.6979 49.242 89.1239 49.154 89.4079 48.978C89.6919 48.802 89.8339 48.576 89.8339 48.3ZM91.1299 42.102V42.582C91.1299 42.742 91.0339 42.84 90.8419 42.876L90.2299 42.978C90.3339 43.21 90.3859 43.468 90.3859 43.752C90.3859 44.052 90.3259 44.324 90.2059 44.568C90.0899 44.812 89.9279 45.02 89.7199 45.192C89.5119 45.364 89.2639 45.496 88.9759 45.588C88.6879 45.68 88.3759 45.726 88.0399 45.726C87.9119 45.726 87.7859 45.72 87.6619 45.708C87.5419 45.692 87.4239 45.672 87.3079 45.648C87.1919 45.716 87.1059 45.788 87.0499 45.864C86.9939 45.94 86.9659 46.018 86.9659 46.098C86.9659 46.23 87.0239 46.328 87.1399 46.392C87.2559 46.456 87.4079 46.502 87.5959 46.53C87.7879 46.558 88.0059 46.576 88.2499 46.584C88.4939 46.592 88.7419 46.606 88.9939 46.626C89.2459 46.646 89.4939 46.68 89.7379 46.728C89.9819 46.772 90.1979 46.848 90.3859 46.956C90.5779 47.06 90.7319 47.202 90.8479 47.382C90.9639 47.562 91.0219 47.796 91.0219 48.084C91.0219 48.348 90.9559 48.606 90.8239 48.858C90.6919 49.11 90.4999 49.334 90.2479 49.53C89.9999 49.726 89.6959 49.882 89.3359 49.998C88.9759 50.118 88.5659 50.178 88.1059 50.178C87.6499 50.178 87.2519 50.134 86.9119 50.046C86.5759 49.958 86.2939 49.838 86.0659 49.686C85.8419 49.538 85.6739 49.366 85.5619 49.17C85.4539 48.974 85.3999 48.77 85.3999 48.558C85.3999 48.27 85.4899 48.024 85.6699 47.82C85.8539 47.616 86.1019 47.456 86.4139 47.34C86.2459 47.26 86.1099 47.15 86.0059 47.01C85.9059 46.87 85.8559 46.686 85.8559 46.458C85.8559 46.278 85.9219 46.09 86.0539 45.894C86.1859 45.698 86.3839 45.532 86.6479 45.396C86.3439 45.228 86.1039 45.006 85.9279 44.73C85.7519 44.45 85.6639 44.124 85.6639 43.752C85.6639 43.448 85.7219 43.174 85.8379 42.93C85.9579 42.686 86.1239 42.478 86.3359 42.306C86.5479 42.134 86.7979 42.002 87.0859 41.91C87.3779 41.818 87.6959 41.772 88.0399 41.772C88.5679 41.772 89.0279 41.882 89.4199 42.102H91.1299Z" fill="#66666E"/>
<path d="M97.2251 43.86C96.8571 44.076 96.5851 44.328 96.4091 44.616C96.2331 44.904 96.1451 45.216 96.1451 45.552C96.1451 45.788 96.1871 46 96.2711 46.188C96.3591 46.372 96.4731 46.528 96.6131 46.656C96.7571 46.784 96.9211 46.882 97.1051 46.95C97.2931 47.018 97.4871 47.052 97.6871 47.052C98.0831 47.052 98.4431 46.986 98.7671 46.854C99.0911 46.718 99.3791 46.536 99.6311 46.308L97.2251 43.86ZM102.901 48H101.647C101.579 48 101.517 47.996 101.461 47.988C101.409 47.98 101.359 47.968 101.311 47.952C101.267 47.932 101.223 47.906 101.179 47.874C101.139 47.842 101.095 47.8 101.047 47.748L100.327 47.016C99.9471 47.352 99.5151 47.616 99.0311 47.808C98.5511 48 98.0291 48.096 97.4651 48.096C97.1371 48.096 96.8151 48.04 96.4991 47.928C96.1871 47.816 95.9071 47.656 95.6591 47.448C95.4111 47.236 95.2111 46.98 95.0591 46.68C94.9071 46.376 94.8311 46.034 94.8311 45.654C94.8311 45.378 94.8751 45.118 94.9631 44.874C95.0551 44.63 95.1811 44.404 95.3411 44.196C95.5051 43.984 95.6971 43.794 95.9171 43.626C96.1371 43.458 96.3791 43.314 96.6431 43.194C96.4151 42.89 96.2491 42.594 96.1451 42.306C96.0411 42.018 95.9891 41.726 95.9891 41.43C95.9891 41.134 96.0431 40.854 96.1511 40.59C96.2591 40.326 96.4151 40.096 96.6191 39.9C96.8271 39.704 97.0771 39.55 97.3691 39.438C97.6651 39.322 97.9991 39.264 98.3711 39.264C98.7071 39.264 99.0091 39.316 99.2771 39.42C99.5491 39.524 99.7811 39.664 99.9731 39.84C100.169 40.016 100.321 40.218 100.429 40.446C100.541 40.674 100.607 40.91 100.627 41.154L99.8111 41.322C99.7391 41.338 99.6711 41.328 99.6071 41.292C99.5471 41.256 99.5011 41.196 99.4691 41.112C99.4371 41.008 99.3911 40.906 99.3311 40.806C99.2711 40.702 99.1971 40.61 99.1091 40.53C99.0211 40.45 98.9151 40.386 98.7911 40.338C98.6711 40.286 98.5311 40.26 98.3711 40.26C98.1871 40.26 98.0211 40.29 97.8731 40.35C97.7291 40.41 97.6051 40.494 97.5011 40.602C97.4011 40.706 97.3231 40.828 97.2671 40.968C97.2151 41.108 97.1891 41.258 97.1891 41.418C97.1891 41.546 97.2031 41.67 97.2311 41.79C97.2591 41.91 97.3051 42.03 97.3691 42.15C97.4331 42.27 97.5131 42.394 97.6091 42.522C97.7091 42.646 97.8291 42.78 97.9691 42.924L100.351 45.378C100.495 45.114 100.609 44.84 100.693 44.556C100.777 44.268 100.833 43.978 100.861 43.686C100.869 43.602 100.897 43.536 100.945 43.488C100.993 43.436 101.057 43.41 101.137 43.41H101.935C101.931 43.91 101.855 44.392 101.707 44.856C101.563 45.316 101.359 45.744 101.095 46.14L102.901 48Z" fill="#66666E"/>
<path d="M111.497 40.836C111.453 40.908 111.407 40.962 111.359 40.998C111.311 41.03 111.251 41.046 111.179 41.046C111.103 41.046 111.017 41.014 110.921 40.95C110.829 40.886 110.713 40.816 110.573 40.74C110.437 40.66 110.275 40.588 110.087 40.524C109.899 40.456 109.675 40.422 109.415 40.422C109.175 40.422 108.963 40.452 108.779 40.512C108.599 40.572 108.447 40.656 108.323 40.764C108.199 40.872 108.105 41 108.041 41.148C107.981 41.292 107.951 41.45 107.951 41.622C107.951 41.842 108.009 42.026 108.125 42.174C108.241 42.318 108.393 42.442 108.581 42.546C108.773 42.65 108.991 42.742 109.235 42.822C109.479 42.898 109.727 42.98 109.979 43.068C110.235 43.156 110.485 43.256 110.729 43.368C110.973 43.48 111.189 43.622 111.377 43.794C111.569 43.966 111.723 44.176 111.839 44.424C111.955 44.672 112.013 44.974 112.013 45.33C112.013 45.714 111.947 46.074 111.815 46.41C111.683 46.746 111.491 47.04 111.239 47.292C110.991 47.54 110.683 47.736 110.315 47.88C109.951 48.024 109.535 48.096 109.067 48.096C108.791 48.096 108.521 48.068 108.257 48.012C107.997 47.96 107.747 47.886 107.507 47.79C107.271 47.69 107.049 47.57 106.841 47.43C106.633 47.29 106.447 47.134 106.283 46.962L106.691 46.29C106.727 46.234 106.773 46.19 106.829 46.158C106.885 46.126 106.947 46.11 107.015 46.11C107.107 46.11 107.209 46.154 107.321 46.242C107.433 46.326 107.567 46.42 107.723 46.524C107.883 46.624 108.075 46.718 108.299 46.806C108.523 46.89 108.791 46.932 109.103 46.932C109.611 46.932 110.003 46.808 110.279 46.56C110.559 46.312 110.699 45.97 110.699 45.534C110.699 45.29 110.641 45.092 110.525 44.94C110.409 44.784 110.255 44.654 110.063 44.55C109.875 44.446 109.659 44.358 109.415 44.286C109.171 44.214 108.923 44.138 108.671 44.058C108.419 43.974 108.171 43.878 107.927 43.77C107.683 43.658 107.465 43.514 107.273 43.338C107.085 43.158 106.933 42.938 106.817 42.678C106.701 42.414 106.643 42.086 106.643 41.694C106.643 41.382 106.703 41.08 106.823 40.788C106.947 40.496 107.125 40.238 107.357 40.014C107.593 39.786 107.883 39.604 108.227 39.468C108.571 39.332 108.963 39.264 109.403 39.264C109.899 39.264 110.353 39.342 110.765 39.498C111.181 39.654 111.539 39.876 111.839 40.164L111.497 40.836Z" fill="#66666E"/>
<path d="M114.378 42.69C114.51 42.554 114.646 42.432 114.786 42.324C114.93 42.212 115.082 42.116 115.242 42.036C115.402 41.956 115.572 41.894 115.752 41.85C115.932 41.806 116.128 41.784 116.34 41.784C116.676 41.784 116.97 41.84 117.222 41.952C117.478 42.064 117.692 42.222 117.864 42.426C118.04 42.63 118.172 42.876 118.26 43.164C118.348 43.448 118.392 43.762 118.392 44.106V48H117.108V44.106C117.108 43.694 117.012 43.374 116.82 43.146C116.632 42.918 116.344 42.804 115.956 42.804C115.668 42.804 115.4 42.87 115.152 43.002C114.908 43.134 114.678 43.314 114.462 43.542V48H113.172V41.88H113.952C114.128 41.88 114.24 41.962 114.288 42.126L114.378 42.69Z" fill="#66666E"/>
<path d="M123.169 45.324C122.709 45.34 122.321 45.378 122.005 45.438C121.689 45.494 121.433 45.568 121.237 45.66C121.041 45.748 120.899 45.854 120.811 45.978C120.727 46.102 120.685 46.238 120.685 46.386C120.685 46.53 120.707 46.654 120.751 46.758C120.799 46.858 120.863 46.942 120.943 47.01C121.027 47.074 121.123 47.122 121.231 47.154C121.343 47.182 121.465 47.196 121.597 47.196C121.933 47.196 122.221 47.134 122.461 47.01C122.705 46.882 122.941 46.698 123.169 46.458V45.324ZM119.749 42.732C120.441 42.088 121.265 41.766 122.221 41.766C122.573 41.766 122.885 41.824 123.157 41.94C123.433 42.052 123.663 42.212 123.847 42.42C124.035 42.628 124.177 42.876 124.273 43.164C124.373 43.448 124.423 43.764 124.423 44.112V48H123.847C123.723 48 123.629 47.982 123.565 47.946C123.501 47.906 123.447 47.828 123.403 47.712L123.277 47.214C123.121 47.354 122.967 47.48 122.815 47.592C122.663 47.7 122.505 47.792 122.341 47.868C122.181 47.944 122.007 48 121.819 48.036C121.635 48.076 121.431 48.096 121.207 48.096C120.959 48.096 120.727 48.062 120.511 47.994C120.299 47.926 120.115 47.824 119.959 47.688C119.803 47.548 119.679 47.376 119.587 47.172C119.499 46.968 119.455 46.728 119.455 46.452C119.455 46.216 119.517 45.986 119.641 45.762C119.769 45.538 119.977 45.338 120.265 45.162C120.557 44.982 120.939 44.834 121.411 44.718C121.887 44.602 122.473 44.536 123.169 44.52V44.112C123.169 43.672 123.075 43.344 122.887 43.128C122.699 42.912 122.423 42.804 122.059 42.804C121.811 42.804 121.603 42.836 121.435 42.9C121.267 42.96 121.121 43.026 120.997 43.098C120.873 43.17 120.763 43.238 120.667 43.302C120.571 43.362 120.469 43.392 120.361 43.392C120.273 43.392 120.197 43.37 120.133 43.326C120.073 43.278 120.023 43.22 119.983 43.152L119.749 42.732Z" fill="#66666E"/>
<path d="M130.26 43.08C130.22 43.132 130.182 43.172 130.146 43.2C130.11 43.228 130.058 43.242 129.99 43.242C129.922 43.242 129.85 43.218 129.774 43.17C129.702 43.122 129.614 43.07 129.51 43.014C129.41 42.954 129.288 42.9 129.144 42.852C129 42.804 128.82 42.78 128.604 42.78C128.324 42.78 128.078 42.83 127.866 42.93C127.658 43.03 127.482 43.174 127.338 43.362C127.198 43.546 127.092 43.772 127.02 44.04C126.952 44.304 126.918 44.602 126.918 44.934C126.918 45.278 126.956 45.584 127.032 45.852C127.108 46.12 127.216 46.346 127.356 46.53C127.5 46.714 127.672 46.854 127.872 46.95C128.076 47.046 128.304 47.094 128.556 47.094C128.804 47.094 129.006 47.064 129.162 47.004C129.318 46.944 129.448 46.878 129.552 46.806C129.656 46.734 129.744 46.668 129.816 46.608C129.892 46.548 129.972 46.518 130.056 46.518C130.16 46.518 130.24 46.558 130.296 46.638L130.662 47.112C130.514 47.292 130.35 47.444 130.17 47.568C129.99 47.692 129.8 47.794 129.6 47.874C129.4 47.95 129.192 48.004 128.976 48.036C128.76 48.072 128.542 48.09 128.322 48.09C127.942 48.09 127.586 48.02 127.254 47.88C126.926 47.736 126.638 47.53 126.39 47.262C126.146 46.99 125.952 46.66 125.808 46.272C125.668 45.88 125.598 45.434 125.598 44.934C125.598 44.482 125.662 44.064 125.79 43.68C125.918 43.292 126.104 42.958 126.348 42.678C126.596 42.398 126.902 42.18 127.266 42.024C127.63 41.864 128.05 41.784 128.526 41.784C128.97 41.784 129.36 41.856 129.696 42C130.036 42.144 130.338 42.348 130.602 42.612L130.26 43.08Z" fill="#66666E"/>
<path d="M132.99 39.12V44.268H133.266C133.354 44.268 133.426 44.256 133.482 44.232C133.538 44.208 133.596 44.158 133.656 44.082L135.372 42.12C135.432 42.04 135.498 41.98 135.57 41.94C135.642 41.9 135.734 41.88 135.846 41.88H137.016L134.952 44.208C134.832 44.364 134.7 44.488 134.556 44.58C134.636 44.636 134.706 44.7 134.766 44.772C134.826 44.84 134.884 44.918 134.94 45.006L137.142 48H135.99C135.886 48 135.796 47.984 135.72 47.952C135.648 47.916 135.584 47.852 135.528 47.76L133.758 45.36C133.698 45.268 133.638 45.21 133.578 45.186C133.518 45.158 133.428 45.144 133.308 45.144H132.99V48H131.7V39.12H132.99Z" fill="#66666E"/>
<path d="M141.623 42.99C141.591 43.046 141.555 43.086 141.515 43.11C141.475 43.134 141.425 43.146 141.365 43.146C141.297 43.146 141.223 43.126 141.143 43.086C141.063 43.042 140.969 42.994 140.861 42.942C140.753 42.89 140.625 42.844 140.477 42.804C140.333 42.76 140.163 42.738 139.967 42.738C139.807 42.738 139.661 42.758 139.529 42.798C139.401 42.834 139.291 42.888 139.199 42.96C139.111 43.028 139.043 43.11 138.995 43.206C138.947 43.298 138.923 43.398 138.923 43.506C138.923 43.65 138.967 43.77 139.055 43.866C139.143 43.962 139.259 44.046 139.403 44.118C139.547 44.186 139.711 44.248 139.895 44.304C140.079 44.36 140.267 44.42 140.459 44.484C140.651 44.548 140.839 44.622 141.023 44.706C141.207 44.79 141.371 44.894 141.515 45.018C141.659 45.138 141.775 45.286 141.863 45.462C141.951 45.634 141.995 45.844 141.995 46.092C141.995 46.38 141.943 46.646 141.839 46.89C141.735 47.134 141.583 47.346 141.383 47.526C141.183 47.706 140.933 47.846 140.633 47.946C140.337 48.046 139.997 48.096 139.613 48.096C139.401 48.096 139.195 48.076 138.995 48.036C138.799 48 138.611 47.95 138.431 47.886C138.255 47.818 138.089 47.738 137.933 47.646C137.781 47.554 137.645 47.454 137.525 47.346L137.825 46.854C137.861 46.794 137.905 46.748 137.957 46.716C138.013 46.68 138.081 46.662 138.161 46.662C138.245 46.662 138.327 46.69 138.407 46.746C138.491 46.798 138.587 46.856 138.695 46.92C138.807 46.984 138.941 47.044 139.097 47.1C139.253 47.152 139.447 47.178 139.679 47.178C139.871 47.178 140.037 47.156 140.177 47.112C140.317 47.064 140.433 47 140.525 46.92C140.617 46.84 140.685 46.75 140.729 46.65C140.773 46.546 140.795 46.436 140.795 46.32C140.795 46.164 140.751 46.036 140.663 45.936C140.575 45.836 140.457 45.75 140.309 45.678C140.165 45.606 139.999 45.542 139.811 45.486C139.627 45.43 139.439 45.37 139.247 45.306C139.055 45.242 138.865 45.168 138.677 45.084C138.493 45 138.327 44.894 138.179 44.766C138.035 44.634 137.919 44.476 137.831 44.292C137.743 44.104 137.699 43.876 137.699 43.608C137.699 43.364 137.747 43.132 137.843 42.912C137.943 42.692 138.087 42.498 138.275 42.33C138.467 42.162 138.701 42.03 138.977 41.934C139.257 41.834 139.579 41.784 139.943 41.784C140.355 41.784 140.729 41.85 141.065 41.982C141.401 42.114 141.683 42.294 141.911 42.522L141.623 42.99Z" fill="#66666E"/>
<path d="M16.2 13.886C16.032 14.162 15.858 14.366 15.678 14.498C15.51 14.618 15.288 14.678 15.012 14.678C14.748 14.678 14.46 14.588 14.148 14.408C13.848 14.216 13.494 14.012 13.086 13.796C12.678 13.58 12.21 13.382 11.682 13.202C11.154 13.01 10.536 12.914 9.828 12.914C8.58 12.914 7.644 13.196 7.02 13.76C6.396 14.312 6.084 15.038 6.084 15.938C6.084 16.514 6.252 16.994 6.588 17.378C6.936 17.75 7.386 18.074 7.938 18.35C8.502 18.626 9.138 18.872 9.846 19.088C10.554 19.304 11.28 19.544 12.024 19.808C12.768 20.06 13.494 20.36 14.202 20.708C14.91 21.056 15.54 21.494 16.092 22.022C16.656 22.55 17.106 23.198 17.442 23.966C17.79 24.722 17.964 25.646 17.964 26.738C17.964 27.926 17.754 29.042 17.334 30.086C16.926 31.118 16.332 32.024 15.552 32.804C14.772 33.572 13.806 34.178 12.654 34.622C11.514 35.066 10.218 35.288 8.766 35.288C7.938 35.288 7.11 35.204 6.282 35.036C5.466 34.868 4.674 34.634 3.906 34.334C3.15 34.034 2.436 33.674 1.764 33.254C1.092 32.834 0.504 32.366 0 31.85L1.584 29.294C1.716 29.102 1.89 28.946 2.106 28.826C2.322 28.694 2.55 28.628 2.79 28.628C3.114 28.628 3.456 28.748 3.816 28.988C4.176 29.228 4.59 29.492 5.058 29.78C5.526 30.068 6.066 30.332 6.678 30.572C7.302 30.812 8.046 30.932 8.91 30.932C10.17 30.932 11.142 30.644 11.826 30.068C12.522 29.492 12.87 28.634 12.87 27.494C12.87 26.834 12.696 26.3 12.348 25.892C12.012 25.484 11.568 25.142 11.016 24.866C10.464 24.59 9.834 24.356 9.126 24.164C8.418 23.96 7.692 23.738 6.948 23.498C6.204 23.258 5.478 22.97 4.77 22.634C4.062 22.298 3.432 21.854 2.88 21.302C2.328 20.75 1.878 20.066 1.53 19.25C1.194 18.434 1.026 17.42 1.026 16.208C1.026 15.236 1.218 14.294 1.602 13.382C1.986 12.47 2.55 11.66 3.294 10.952C4.038 10.244 4.95 9.67399 6.03 9.24199C7.122 8.80999 8.37 8.59399 9.774 8.59399C11.346 8.59399 12.798 8.83999 14.13 9.33199C15.474 9.81199 16.608 10.484 17.532 11.348L16.2 13.886Z" fill="#A6CD48"/>
<path d="M32.933 23.534C32.933 23.018 32.861 22.526 32.717 22.058C32.585 21.59 32.369 21.176 32.069 20.816C31.769 20.456 31.391 20.174 30.935 19.97C30.479 19.754 29.933 19.646 29.297 19.646C28.109 19.646 27.179 19.982 26.507 20.654C25.835 21.326 25.397 22.286 25.193 23.534H32.933ZM25.121 26.486C25.277 28.226 25.769 29.498 26.597 30.302C27.437 31.106 28.529 31.508 29.873 31.508C30.557 31.508 31.145 31.43 31.637 31.274C32.141 31.106 32.579 30.926 32.951 30.734C33.335 30.53 33.677 30.35 33.977 30.194C34.289 30.026 34.595 29.942 34.895 29.942C35.279 29.942 35.579 30.086 35.795 30.374L37.235 32.174C36.707 32.786 36.125 33.296 35.489 33.704C34.853 34.1 34.193 34.418 33.509 34.658C32.825 34.886 32.135 35.042 31.439 35.126C30.743 35.222 30.071 35.27 29.423 35.27C28.127 35.27 26.915 35.06 25.787 34.64C24.671 34.208 23.693 33.578 22.853 32.75C22.025 31.91 21.371 30.872 20.891 29.636C20.411 28.4 20.171 26.966 20.171 25.334C20.171 24.074 20.375 22.886 20.783 21.77C21.203 20.654 21.803 19.682 22.583 18.854C23.363 18.026 24.311 17.372 25.427 16.892C26.543 16.4 27.803 16.154 29.207 16.154C30.395 16.154 31.487 16.346 32.483 16.73C33.491 17.102 34.355 17.648 35.075 18.368C35.807 19.088 36.371 19.976 36.767 21.032C37.175 22.076 37.379 23.27 37.379 24.614C37.379 24.986 37.361 25.292 37.325 25.532C37.289 25.772 37.229 25.964 37.145 26.108C37.061 26.252 36.947 26.354 36.803 26.414C36.659 26.462 36.473 26.486 36.245 26.486H25.121Z" fill="#A6CD48"/>
<path d="M45.4297 8.16199V23.39H46.2578C46.5698 23.39 46.8158 23.348 46.9958 23.264C47.1758 23.168 47.3558 23 47.5358 22.76L51.6397 17.288C51.8437 17.012 52.0718 16.802 52.3238 16.658C52.5878 16.514 52.9178 16.442 53.3138 16.442H57.8498L52.5218 23.21C52.1018 23.774 51.6158 24.218 51.0638 24.542C51.3398 24.734 51.5798 24.956 51.7838 25.208C51.9878 25.46 52.1858 25.742 52.3778 26.054L58.1198 35H53.6558C53.2718 35 52.9417 34.94 52.6657 34.82C52.3897 34.688 52.1618 34.46 51.9818 34.136L47.8057 27.314C47.6377 27.026 47.4638 26.84 47.2838 26.756C47.1038 26.672 46.8337 26.63 46.4737 26.63H45.4297V35H40.4618V8.16199H45.4297Z" fill="#A6CD48"/>
<path d="M67.57 16.154C68.962 16.154 70.228 16.376 71.368 16.82C72.508 17.264 73.486 17.9 74.302 18.728C75.118 19.544 75.748 20.54 76.192 21.716C76.636 22.892 76.858 24.218 76.858 25.694C76.858 27.17 76.636 28.502 76.192 29.69C75.748 30.866 75.118 31.868 74.302 32.696C73.486 33.524 72.508 34.16 71.368 34.604C70.228 35.048 68.962 35.27 67.57 35.27C66.166 35.27 64.888 35.048 63.736 34.604C62.596 34.16 61.618 33.524 60.802 32.696C59.986 31.868 59.35 30.866 58.894 29.69C58.45 28.502 58.228 27.17 58.228 25.694C58.228 24.218 58.45 22.892 58.894 21.716C59.35 20.54 59.986 19.544 60.802 18.728C61.618 17.9 62.596 17.264 63.736 16.82C64.888 16.376 66.166 16.154 67.57 16.154ZM67.57 31.544C68.986 31.544 70.036 31.058 70.72 30.086C71.404 29.102 71.746 27.644 71.746 25.712C71.746 23.792 71.404 22.346 70.72 21.374C70.036 20.39 68.986 19.898 67.57 19.898C66.118 19.898 65.05 20.39 64.366 21.374C63.682 22.346 63.34 23.792 63.34 25.712C63.34 27.644 63.682 29.102 64.366 30.086C65.05 31.058 66.118 31.544 67.57 31.544Z" fill="#A6CD48"/>
<path d="M86.0338 35.288C85.1938 35.288 84.4498 35.168 83.8018 34.928C83.1538 34.676 82.6078 34.322 82.1638 33.866C81.7198 33.41 81.3838 32.858 81.1558 32.21C80.9278 31.562 80.8138 30.83 80.8138 30.014V20.006H79.0678C78.8038 20.006 78.5758 19.922 78.3838 19.754C78.2038 19.586 78.1138 19.334 78.1138 18.998V17.054L81.0838 16.514L82.0918 11.708C82.2238 11.168 82.5898 10.898 83.1898 10.898H85.7818V16.55H90.5698V20.006H85.7818V29.69C85.7818 30.206 85.9018 30.614 86.1418 30.914C86.3938 31.214 86.7478 31.364 87.2038 31.364C87.4438 31.364 87.6478 31.34 87.8158 31.292C87.9838 31.232 88.1278 31.172 88.2478 31.112C88.3678 31.04 88.4758 30.98 88.5718 30.932C88.6798 30.872 88.7878 30.842 88.8958 30.842C89.0398 30.842 89.1598 30.878 89.2558 30.95C89.3518 31.01 89.4478 31.118 89.5438 31.274L91.0378 33.65C90.3538 34.19 89.5798 34.598 88.7158 34.874C87.8518 35.15 86.9578 35.288 86.0338 35.288Z" fill="#A6CD48"/>
<path d="M102.933 27.242C101.721 27.302 100.713 27.41 99.9093 27.566C99.1053 27.71 98.4633 27.902 97.9833 28.142C97.5153 28.382 97.1793 28.658 96.9753 28.97C96.7833 29.27 96.6873 29.6 96.6873 29.96C96.6873 30.68 96.8853 31.19 97.2813 31.49C97.6893 31.79 98.2533 31.94 98.9733 31.94C99.8013 31.94 100.515 31.796 101.115 31.508C101.727 31.208 102.333 30.746 102.933 30.122V27.242ZM92.8173 19.016C93.9093 18.032 95.1153 17.3 96.4353 16.82C97.7553 16.328 99.1833 16.082 100.719 16.082C101.823 16.082 102.807 16.262 103.671 16.622C104.547 16.982 105.285 17.486 105.885 18.134C106.497 18.77 106.965 19.532 107.289 20.42C107.613 21.308 107.775 22.28 107.775 23.336V35H105.507C105.039 35 104.679 34.934 104.427 34.802C104.187 34.67 103.989 34.394 103.833 33.974L103.437 32.786C102.969 33.194 102.513 33.554 102.069 33.866C101.637 34.178 101.187 34.442 100.719 34.658C100.251 34.862 99.7473 35.018 99.2073 35.126C98.6793 35.234 98.0853 35.288 97.4253 35.288C96.6093 35.288 95.8653 35.18 95.1933 34.964C94.5213 34.748 93.9393 34.43 93.4473 34.01C92.9673 33.578 92.5953 33.044 92.3313 32.408C92.0673 31.772 91.9353 31.04 91.9353 30.212C91.9353 29.528 92.1093 28.844 92.4573 28.16C92.8053 27.476 93.3993 26.858 94.2393 26.306C95.0913 25.742 96.2193 25.28 97.6233 24.92C99.0393 24.548 100.809 24.338 102.933 24.29V23.336C102.933 22.172 102.687 21.32 102.195 20.78C101.703 20.228 100.995 19.952 100.071 19.952C99.3873 19.952 98.8173 20.036 98.3613 20.204C97.9053 20.36 97.5033 20.534 97.1553 20.726C96.8193 20.906 96.5013 21.08 96.2013 21.248C95.9013 21.404 95.5533 21.482 95.1573 21.482C94.8093 21.482 94.5153 21.398 94.2753 21.23C94.0473 21.05 93.8553 20.84 93.6993 20.6L92.8173 19.016Z" fill="#A6CD48"/>
<path d="M116.621 8.16199V23.39H117.449C117.761 23.39 118.007 23.348 118.187 23.264C118.367 23.168 118.547 23 118.727 22.76L122.831 17.288C123.035 17.012 123.263 16.802 123.515 16.658C123.779 16.514 124.109 16.442 124.505 16.442H126.981C127.816 16.442 128.283 17.4046 127.767 18.0605L123.713 23.21C123.293 23.774 122.807 24.218 122.255 24.542C122.531 24.734 122.771 24.956 122.975 25.208C123.179 25.46 123.377 25.742 123.569 26.054L129.311 35H124.847C124.463 35 124.133 34.94 123.857 34.82C123.581 34.688 123.353 34.46 123.173 34.136L118.997 27.314C118.829 27.026 118.655 26.84 118.475 26.756C118.295 26.672 118.025 26.63 117.665 26.63H116.621V35H111.653V8.16199H116.621Z" fill="#A6CD48"/>
<path d="M45.4297 8.16199V23.39H46.2577C46.5697 23.39 46.8157 23.348 46.9957 23.264C47.1757 23.168 47.3557 23 47.5357 22.76L51.6397 17.288C51.8437 17.012 52.0717 16.802 52.3237 16.658C52.5877 16.514 52.9177 16.442 53.3137 16.442H57.8497L52.5217 23.21C52.1017 23.774 51.6157 24.218 51.0637 24.542C51.3397 24.734 51.5797 24.956 51.7837 25.208C51.9877 25.46 52.1857 25.742 52.3777 26.054L58.1197 35H53.6557C53.2717 35 52.9417 34.94 52.6657 34.82C52.3897 34.688 52.1617 34.46 51.9817 34.136L47.8057 27.314C47.6377 27.026 47.4637 26.84 47.2837 26.756C47.1037 26.672 46.8337 26.63 46.4737 26.63H45.4297V35H40.4617V8.16199H45.4297Z" fill="#FEB937"/>
<path d="M67.57 16.154C68.962 16.154 70.228 16.376 71.368 16.82C72.508 17.264 73.486 17.9 74.302 18.728C75.118 19.544 75.748 20.54 76.192 21.716C76.636 22.892 76.858 24.218 76.858 25.694C76.858 27.17 76.636 28.502 76.192 29.69C75.748 30.866 75.118 31.868 74.302 32.696C73.486 33.524 72.508 34.16 71.368 34.604C70.228 35.048 68.962 35.27 67.57 35.27C66.166 35.27 64.888 35.048 63.736 34.604C62.596 34.16 61.618 33.524 60.802 32.696C59.986 31.868 59.35 30.866 58.894 29.69C58.45 28.502 58.228 27.17 58.228 25.694C58.228 24.218 58.45 22.892 58.894 21.716C59.35 20.54 59.986 19.544 60.802 18.728C61.618 17.9 62.596 17.264 63.736 16.82C64.888 16.376 66.166 16.154 67.57 16.154ZM67.57 31.544C68.986 31.544 70.036 31.058 70.72 30.086C71.404 29.102 71.746 27.644 71.746 25.712C71.746 23.792 71.404 22.346 70.72 21.374C70.036 20.39 68.986 19.898 67.57 19.898C66.118 19.898 65.05 20.39 64.366 21.374C63.682 22.346 63.34 23.792 63.34 25.712C63.34 27.644 63.682 29.102 64.366 30.086C65.05 31.058 66.118 31.544 67.57 31.544Z" fill="#FEB937"/>
<path d="M86.0338 35.288C85.1938 35.288 84.4498 35.168 83.8018 34.928C83.1538 34.676 82.6078 34.322 82.1638 33.866C81.7198 33.41 81.3838 32.858 81.1558 32.21C80.9278 31.562 80.8138 30.83 80.8138 30.014V20.006H79.0678C78.8038 20.006 78.5758 19.922 78.3838 19.754C78.2038 19.586 78.1138 19.334 78.1138 18.998V17.054L81.0838 16.514L82.0918 11.708C82.2238 11.168 82.5898 10.898 83.1898 10.898H85.7818V16.55H90.5698V20.006H85.7818V29.69C85.7818 30.206 85.9018 30.614 86.1418 30.914C86.3938 31.214 86.7478 31.364 87.2038 31.364C87.4438 31.364 87.6478 31.34 87.8158 31.292C87.9838 31.232 88.1278 31.172 88.2478 31.112C88.3678 31.04 88.4758 30.98 88.5718 30.932C88.6798 30.872 88.7878 30.842 88.8958 30.842C89.0398 30.842 89.1598 30.878 89.2558 30.95C89.3518 31.01 89.4478 31.118 89.5438 31.274L91.0378 33.65C90.3538 34.19 89.5798 34.598 88.7158 34.874C87.8518 35.15 86.9578 35.288 86.0338 35.288Z" fill="#FEB937"/>
<path d="M102.933 27.242C101.721 27.302 100.713 27.41 99.9093 27.566C99.1053 27.71 98.4633 27.902 97.9833 28.142C97.5153 28.382 97.1793 28.658 96.9753 28.97C96.7833 29.27 96.6873 29.6 96.6873 29.96C96.6873 30.68 96.8853 31.19 97.2813 31.49C97.6893 31.79 98.2533 31.94 98.9733 31.94C99.8013 31.94 100.515 31.796 101.115 31.508C101.727 31.208 102.333 30.746 102.933 30.122V27.242ZM92.8173 19.016C93.9093 18.032 95.1153 17.3 96.4353 16.82C97.7553 16.328 99.1833 16.082 100.719 16.082C101.823 16.082 102.807 16.262 103.671 16.622C104.547 16.982 105.285 17.486 105.885 18.134C106.497 18.77 106.965 19.532 107.289 20.42C107.613 21.308 107.775 22.28 107.775 23.336V35H105.507C105.039 35 104.679 34.934 104.427 34.802C104.187 34.67 103.989 34.394 103.833 33.974L103.437 32.786C102.969 33.194 102.513 33.554 102.069 33.866C101.637 34.178 101.187 34.442 100.719 34.658C100.251 34.862 99.7473 35.018 99.2073 35.126C98.6793 35.234 98.0853 35.288 97.4253 35.288C96.6093 35.288 95.8653 35.18 95.1933 34.964C94.5213 34.748 93.9393 34.43 93.4473 34.01C92.9673 33.578 92.5953 33.044 92.3313 32.408C92.0673 31.772 91.9353 31.04 91.9353 30.212C91.9353 29.528 92.1093 28.844 92.4573 28.16C92.8053 27.476 93.3993 26.858 94.2393 26.306C95.0913 25.742 96.2193 25.28 97.6233 24.92C99.0393 24.548 100.809 24.338 102.933 24.29V23.336C102.933 22.172 102.687 21.32 102.195 20.78C101.703 20.228 100.995 19.952 100.071 19.952C99.3873 19.952 98.8173 20.036 98.3613 20.204C97.9053 20.36 97.5033 20.534 97.1553 20.726C96.8193 20.906 96.5013 21.08 96.2013 21.248C95.9013 21.404 95.5533 21.482 95.1573 21.482C94.8093 21.482 94.5153 21.398 94.2753 21.23C94.0473 21.05 93.8553 20.84 93.6993 20.6L92.8173 19.016Z" fill="#FEB937"/>
<path d="M116.621 8.16199V23.39H117.449C117.761 23.39 118.007 23.348 118.187 23.264C118.367 23.168 118.547 23 118.727 22.76L122.831 17.288C123.035 17.012 123.263 16.802 123.515 16.658C123.779 16.514 124.109 16.442 124.505 16.442H126.981C127.816 16.442 128.283 17.4046 127.767 18.0605L123.713 23.21C123.293 23.774 122.807 24.218 122.255 24.542C122.531 24.734 122.771 24.956 122.975 25.208C123.179 25.46 123.377 25.742 123.569 26.054L129.311 35H124.847C124.463 35 124.133 34.94 123.857 34.82C123.581 34.688 123.353 34.46 123.173 34.136L118.997 27.314C118.829 27.026 118.655 26.84 118.475 26.756C118.295 26.672 118.025 26.63 117.665 26.63H116.621V35H111.653V8.16199H116.621Z" fill="#FEB937"/>
<path fill-rule="evenodd" clip-rule="evenodd" d="M119 4C119 1.79086 120.791 0 123 0H137C138.301 0 139.456 0.620801 140.187 1.58226C139.876 1.70109 139.589 1.91726 139.375 2.21978L135.252 8.33011C134.646 9.31623 134.226 10.2618 132.661 10.8074C131.664 11.194 130.629 12.0151 129.813 13.169C128.259 15.368 128.097 17.9255 129.45 18.8816C130.803 19.8377 133.16 18.8305 134.713 16.6315C135.529 15.4776 135.962 14.2306 135.993 13.1619C135.985 11.5042 136.527 10.5408 137.255 9.64038L141 5.00154V18C141 20.2091 139.209 22 137 22H123C121.958 22 121.008 21.6012 120.296 20.9479C120.699 20.8687 121.086 20.632 121.36 20.2578L123 17C123.623 16.0247 125.763 13.5175 127.338 12.9997C128.342 12.6312 129.392 11.8285 130.227 10.6891C130.265 10.638 130.3 10.5858 130.336 10.5338C130.371 10.4823 130.405 10.431 130.442 10.3814C131.301 9.20992 133.393 5.10492 133.393 5.10492L132.788 4.66136L128.796 10.1043L128.163 9.64038L131.906 4.01421L131.26 3.54048L131.252 3.53472L127.01 8.79452L126.377 8.33011L130.369 2.88712L129.764 2.44356C129.764 2.44356 126.477 5.67208 125.618 6.84354C125.582 6.89321 125.543 6.94186 125.505 6.99073C125.466 7.04004 125.427 7.08957 125.389 7.1406C124.553 8.28 124.103 9.52268 124.053 10.5907C124.032 12.2482 123.243 13.1126 122.5 14L119.017 18.367C119.006 18.2462 119 18.1237 119 18V4Z" fill="#FEB937"/>
</svg>
